<?xml version="1.0" standalone="no"?>
<!DOCTYPE svg PUBLIC "-//W3C//DTD SVG 20010904//EN"
 "http://www.w3.org/TR/2001/REC-SVG-20010904/DTD/svg10.dtd">
<svg version="1.0" xmlns="http://www.w3.org/2000/svg"
 width="60.000000pt" height="60.000000pt" viewBox="0 0 512.000000 512.000000"
 preserveAspectRatio="xMidYMid meet">

<g transform="translate(0.000000,512.000000) scale(0.100000,-0.100000)"
fill="#fff" stroke="none">
<path d="M1312 5100 c-74 -26 -111 -51 -171 -115 -94 -99 -121 -193 -121 -417
l0 -128 -329 0 c-291 0 -336 -2 -388 -18 -119 -37 -205 -114 -262 -232 l-36
-75 0 -555 c0 -523 1 -557 19 -590 10 -19 28 -45 40 -58 21 -23 21 -28 26
-670 l5 -647 32 -66 c39 -79 130 -169 205 -204 30 -14 85 -29 123 -35 42 -5
347 -10 748 -10 l677 0 0 -500 c0 -480 1 -501 21 -555 29 -77 102 -154 181
-191 l63 -29 1305 -3 c890 -2 1327 1 1374 8 124 19 211 85 265 199 l26 56 0
765 0 765 -26 56 c-34 72 -96 134 -168 168 l-56 26 -427 3 -428 3 0 418 c0
369 2 420 16 432 8 7 28 36 42 63 l27 51 3 485 c2 298 -1 515 -7 563 -20 151
-104 268 -239 334 l-76 38 -352 3 -352 3 -4 182 c-3 180 -3 183 -34 247 -45
95 -111 162 -202 207 l-76 38 -695 2 c-664 2 -698 2 -749 -17z m1449 -178 c60
-31 113 -93 129 -150 5 -20 10 -103 10 -184 l0 -148 -85 0 -85 0 0 105 c0 121
-16 167 -72 207 l-33 23 -571 3 -570 2 -34 -22 c-65 -45 -74 -67 -80 -196 l-5
-117 -85 0 -85 0 0 150 c0 120 4 159 18 197 21 55 97 129 149 145 22 7 255 11
689 12 l657 1 53 -28z m-201 -397 l0 -85 -510 0 -510 0 0 85 0 85 510 0 510 0
0 -85z m1226 -282 c48 -26 97 -79 121 -131 16 -33 18 -89 21 -533 3 -544 2
-558 -53 -579 -17 -7 -662 -10 -1836 -10 l-1811 0 -29 30 -30 29 3 518 c3 508
3 519 24 558 30 56 71 94 129 121 l50 24 1685 -3 1685 -2 41 -22z m-2166
-1521 c0 -58 6 -119 15 -148 19 -63 71 -125 132 -155 46 -23 56 -24 278 -24
258 0 284 6 354 76 58 58 71 99 71 232 l0 117 685 0 685 0 0 -385 0 -385 -857
-2 -858 -3 -50 -25 c-64 -31 -134 -101 -165 -165 -23 -46 -25 -65 -30 -225
l-5 -175 -705 0 c-800 0 -762 -4 -840 81 -73 80 -70 47 -70 699 l0 585 680 0
680 0 0 -98z m680 -5 c0 -98 -1 -105 -26 -128 -25 -23 -31 -24 -209 -27 -264
-5 -275 2 -275 169 l0 89 255 0 255 0 0 -103z m2566 -862 c28 -16 49 -39 63
-68 21 -43 21 -53 21 -758 l0 -715 -22 -44 c-28 -54 -62 -80 -119 -91 -57 -11
-2561 -11 -2618 0 -48 10 -84 33 -115 75 -21 27 -21 38 -23 764 l-3 737 23 40
c12 22 40 50 62 62 l40 23 1324 0 1324 0 43 -25z"/>
<path d="M2434 1528 c-42 -20 -44 -39 -44 -509 l0 -450 25 -24 24 -25 291 0
291 0 24 25 c32 31 32 75 1 112 l-24 28 -231 3 -231 3 0 395 0 396 -29 29
c-30 30 -60 35 -97 17z"/>
<path d="M3099 1511 c-17 -18 -29 -40 -29 -56 0 -16 12 -38 29 -56 29 -28 32
-29 130 -29 l101 0 0 -400 0 -401 25 -24 c24 -25 65 -32 100 -19 42 17 45 43
45 454 l0 390 100 0 c94 0 103 2 125 25 17 16 25 35 25 60 0 25 -8 44 -25 60
l-24 25 -286 0 -287 0 -29 -29z"/>
<path d="M3955 1516 l-25 -25 0 -464 0 -464 24 -22 c23 -22 28 -22 217 -19
182 3 197 4 239 27 70 37 106 69 139 119 55 88 63 138 59 385 -3 220 -3 222
-32 284 -33 73 -104 144 -174 176 -42 19 -68 22 -234 25 l-187 4 -26 -26z
m410 -180 c69 -53 77 -87 73 -325 -3 -202 -4 -208 -28 -244 -43 -62 -82 -77
-204 -77 l-106 0 0 341 0 341 113 -4 c107 -3 116 -5 152 -32z"/>
</g>
</svg>
