<?xml version="1.0" standalone="no"?>
<!DOCTYPE svg PUBLIC "-//W3C//DTD SVG 20010904//EN"
 "http://www.w3.org/TR/2001/REC-SVG-20010904/DTD/svg10.dtd">
<svg version="1.0" xmlns="http://www.w3.org/2000/svg"
 width="60.000000pt" height="60.000000pt" viewBox="0 0 512.000000 512.000000"
 preserveAspectRatio="xMidYMid meet">

<g transform="translate(0.000000,512.000000) scale(0.100000,-0.100000)"
fill="#fff" stroke="none">
<path d="M65 5111 c-11 -5 -29 -19 -40 -31 -20 -22 -20 -36 -20 -2239 0 -2075
1 -2220 17 -2279 60 -214 203 -390 393 -482 167 -82 -28 -75 2145 -75 2174 0
1977 -7 2145 75 235 116 392 350 412 616 6 80 -10 123 -54 143 -15 7 -124 11
-303 11 l-280 0 -2 2105 -3 2105 -28 27 -27 28 -2168 2 c-1192 1 -2176 -2
-2187 -6z m4200 -2231 l0 -2025 -1460 -5 c-803 -3 -1467 -9 -1476 -13 -28 -14
-46 -61 -53 -134 -16 -186 -128 -352 -290 -431 -87 -42 -139 -55 -236 -55
-238 -2 -437 146 -517 383 -17 53 -18 145 -21 2170 -1 1163 0 2120 3 2127 3
11 403 13 2027 11 l2023 -3 0 -2025z m621 -2272 c-3 -18 -22 -65 -41 -103 -60
-124 -178 -222 -325 -272 -52 -17 -131 -18 -1653 -21 l-1597 -2 50 62 c65 80
126 202 147 296 l17 72 1704 0 1704 0 -6 -32z"/>
<path d="M960 4478 l0 -113 -72 -33 c-267 -126 -330 -462 -127 -677 76 -81
194 -135 293 -135 128 0 226 -97 226 -222 0 -85 -80 -179 -171 -199 -105 -24
-223 51 -249 159 l-12 52 -104 0 -104 0 0 -27 c0 -89 59 -210 135 -282 51 -48
140 -101 170 -101 13 0 15 -18 15 -115 l0 -115 105 0 105 0 0 110 c0 97 2 111
18 116 113 38 210 122 263 229 32 66 34 75 34 180 0 103 -2 114 -32 177 -68
144 -192 231 -355 248 -104 10 -147 29 -193 82 -89 105 -56 261 68 323 28 14
66 25 85 25 99 0 189 -67 213 -158 l13 -52 104 0 105 0 -6 57 c-14 134 -119
271 -251 329 l-66 28 0 113 0 113 -105 0 -105 0 0 -112z"/>
<path d="M2560 4480 l0 -110 425 0 425 0 0 110 0 110 -425 0 -425 0 0 -110z"/>
<path d="M1920 3945 l0 -105 105 0 105 0 0 105 0 105 -105 0 -105 0 0 -105z"/>
<path d="M2350 3945 l0 -105 745 0 745 0 0 105 0 105 -745 0 -745 0 0 -105z"/>
<path d="M1920 3415 l0 -105 105 0 105 0 0 105 0 105 -105 0 -105 0 0 -105z"/>
<path d="M2350 3415 l0 -105 745 0 745 0 0 105 0 105 -745 0 -745 0 0 -105z"/>
<path d="M1920 2880 l0 -110 105 0 105 0 0 110 0 110 -105 0 -105 0 0 -110z"/>
<path d="M2350 2880 l0 -110 745 0 745 0 0 110 0 110 -745 0 -745 0 0 -110z"/>
<path d="M640 2345 l0 -105 105 0 105 0 0 105 0 105 -105 0 -105 0 0 -105z"/>
<path d="M1070 2345 l0 -105 800 0 800 0 0 105 0 105 -800 0 -800 0 0 -105z"/>
<path d="M2880 2345 l0 -105 480 0 480 0 0 105 0 105 -480 0 -480 0 0 -105z"/>
<path d="M640 1815 l0 -105 105 0 105 0 0 105 0 105 -105 0 -105 0 0 -105z"/>
<path d="M1070 1815 l0 -105 480 0 480 0 0 105 0 105 -480 0 -480 0 0 -105z"/>
<path d="M2240 1815 l0 -105 800 0 800 0 0 105 0 105 -800 0 -800 0 0 -105z"/>
<path d="M2990 1280 l0 -110 425 0 425 0 0 110 0 110 -425 0 -425 0 0 -110z"/>
</g>
</svg>
