<?xml version="1.0" standalone="no"?>
<!DOCTYPE svg PUBLIC "-//W3C//DTD SVG 20010904//EN"
 "http://www.w3.org/TR/2001/REC-SVG-20010904/DTD/svg10.dtd">
<svg version="1.0" xmlns="http://www.w3.org/2000/svg"
 width="60.000000pt" height="60.000000pt" viewBox="0 0 512.000000 512.000000"
 preserveAspectRatio="xMidYMid meet">

<g transform="translate(0.000000,512.000000) scale(0.100000,-0.100000)"
fill="#fff" stroke="3px solid #fff">
<path d="M755 5106 c-315 -61 -552 -337 -572 -663 -13 -212 66 -387 410 -906
108 -164 197 -300 197 -302 0 -2 -22 -38 -49 -80 -181 -276 -281 -626 -281
-975 2 -892 653 -1650 1545 -1796 207 -34 468 -22 718 32 l27 6 0 -186 c0
-185 0 -187 25 -211 l24 -25 1044 0 1044 0 27 21 27 21 -3 372 c-4 355 -5 374
-27 436 -92 263 -319 433 -598 448 l-104 5 -35 64 -36 63 42 41 c96 94 140
205 140 358 0 94 1 98 44 183 50 99 71 194 63 276 -8 78 -57 173 -114 219 -25
21 -58 51 -72 67 -96 105 -122 129 -174 158 l-59 33 -43 107 c-224 560 -713
965 -1324 1095 -116 25 -145 27 -361 28 -206 0 -249 -3 -348 -23 -205 -41
-421 -125 -602 -234 l-55 -32 19 29 c107 164 205 352 248 478 27 79 32 106 31
187 -1 260 -131 487 -355 623 -131 79 -315 112 -463 83z m249 -146 c98 -25
165 -61 237 -128 109 -100 173 -228 190 -378 20 -180 -57 -348 -385 -841 -88
-133 -164 -243 -168 -243 -9 0 -345 506 -402 605 -106 188 -156 324 -156 426
1 165 90 353 214 451 143 113 305 151 470 108z m1618 -1129 c53 -12 138 -35
190 -52 112 -36 297 -123 302 -141 2 -7 9 -35 15 -63 26 -109 107 -250 216
-375 73 -84 118 -175 123 -250 4 -53 2 -61 -23 -85 -21 -22 -32 -26 -58 -21
-43 9 -93 36 -166 90 -196 144 -411 121 -583 -63 -68 -72 -130 -189 -149 -279
-6 -31 -9 -92 -7 -137 8 -143 71 -239 196 -298 91 -43 220 -49 381 -17 117 23
166 21 209 -6 12 -8 22 -20 22 -27 0 -7 20 -53 45 -102 40 -78 45 -93 39 -134
-9 -73 12 -198 47 -268 16 -34 52 -87 79 -117 28 -29 50 -57 50 -61 0 -4 -16
-34 -36 -66 l-35 -59 -72 0 c-179 -1 -335 -66 -462 -194 -128 -128 -181 -249
-192 -434 l-6 -102 -51 -15 c-121 -35 -402 -64 -490 -51 l-46 7 0 71 c0 117
-82 323 -195 491 -19 29 -35 55 -35 58 0 4 30 24 66 45 116 68 206 186 233
305 21 91 7 227 -34 332 -14 35 -14 40 4 65 33 48 69 127 85 189 41 159 -2
289 -128 385 -57 42 -119 64 -231 79 -44 6 -91 17 -104 26 -31 20 -25 46 43
193 124 263 136 393 45 475 -73 66 -106 70 -522 67 l-368 -2 30 37 c57 71 228
211 346 283 191 117 412 199 634 235 130 21 466 13 593 -14z m806 -416 c90
-84 183 -195 256 -307 59 -91 168 -307 161 -318 -3 -4 -34 -10 -71 -13 -94 -7
-194 -58 -262 -134 -63 -70 -74 -81 -145 -149 -54 -51 -97 -133 -97 -185 0
-18 -4 -20 -57 -14 -40 5 -90 0 -163 -14 -170 -34 -278 -27 -351 22 -171 113
-43 504 188 573 91 28 155 11 277 -73 45 -31 100 -64 124 -74 204 -88 357 55
309 287 -23 110 -46 148 -208 354 -46 58 -89 129 -89 145 0 11 53 -31 128
-100z m-1631 -281 c51 -39 37 -117 -62 -332 -29 -66 -59 -148 -66 -184 -11
-58 -10 -68 9 -111 18 -41 29 -51 74 -72 29 -13 101 -33 160 -44 117 -22 150
-35 190 -78 78 -82 76 -204 -6 -333 -74 -116 -73 -111 -43 -187 37 -98 47
-140 47 -209 0 -149 -98 -271 -268 -334 -105 -39 -106 -66 -12 -210 81 -124
161 -281 184 -359 9 -30 16 -78 16 -107 l0 -52 -77 15 c-107 20 -299 85 -408
138 -324 159 -587 422 -750 750 -79 159 -117 269 -152 434 -24 112 -27 148
-27 326 -1 222 16 337 75 518 36 111 121 290 181 384 l44 68 431 0 c425 0 432
0 460 -21z m2151 -504 c60 -15 122 -60 153 -108 15 -26 54 -67 86 -92 89 -70
121 -154 94 -249 -6 -24 -8 -23 -44 26 -156 213 -537 213 -749 1 -33 -33 -62
-58 -64 -56 -2 3 -8 27 -13 54 -18 94 13 168 94 224 24 16 61 55 82 87 74 109
209 151 361 113z m73 -423 c49 -20 106 -72 132 -121 20 -37 22 -55 22 -206 0
-159 -1 -167 -27 -215 -36 -68 -98 -129 -166 -162 -46 -21 -72 -27 -132 -27
-66 -1 -84 3 -142 32 -87 42 -152 114 -175 191 -12 39 -17 93 -18 181 0 110 3
130 22 166 39 73 132 137 246 169 63 18 186 14 238 -8z m-228 -868 c53 -9 123
-3 198 16 24 6 29 1 62 -56 l35 -63 -119 -158 c-66 -87 -122 -158 -124 -158
-3 0 -58 71 -122 157 l-116 157 34 64 c32 61 35 63 64 57 16 -3 56 -11 88 -16z
m-149 -389 c163 -216 183 -234 229 -213 12 6 92 103 177 216 l155 206 70 0
c244 2 450 -154 510 -384 12 -47 15 -121 15 -347 l0 -288 -130 0 -130 0 0 208
c0 196 -1 210 -20 227 -24 22 -77 22 -99 0 -13 -13 -16 -49 -19 -225 l-3 -210
-555 0 -554 0 0 207 c0 234 -3 243 -71 243 -65 0 -69 -14 -69 -247 l0 -203
-131 0 -131 0 4 308 c4 286 6 311 26 366 31 83 74 146 142 210 99 91 209 134
350 135 l75 1 159 -210z"/>
<path d="M799 4757 c-189 -54 -288 -241 -225 -426 27 -77 110 -161 191 -191
156 -57 331 14 406 165 20 42 24 65 24 140 0 78 -4 97 -27 140 -34 64 -100
128 -160 155 -59 26 -150 33 -209 17z m148 -142 c50 -21 72 -42 94 -90 22 -48
24 -113 5 -158 -18 -44 -78 -95 -121 -103 -131 -24 -228 54 -227 182 1 136
126 220 249 169z"/>
<path d="M2485 4695 c-126 -79 -238 -155 -249 -169 -12 -16 -17 -32 -12 -49 7
-30 416 -384 454 -393 52 -14 93 33 78 88 -3 13 -62 70 -131 127 -68 58 -123
107 -120 109 2 2 53 -4 115 -13 714 -104 1330 -544 1658 -1183 50 -96 133
-297 147 -354 16 -62 89 -78 128 -27 l19 27 -27 83 c-138 417 -413 816 -751
1089 -187 150 -454 302 -679 385 -123 46 -336 99 -474 119 -57 9 -106 17 -108
20 -2 2 55 41 127 86 154 97 172 124 122 183 -29 34 -63 19 -297 -128z"/>
</g>
</svg>
