<svg width="32" height="32" viewBox="0 0 32 32" fill="none" xmlns="http://www.w3.org/2000/svg">
<g clip-path="url(#clip0_363_919)">
<path d="M7.741 4.47732H6.60375C6.77481 3.21088 7.47506 3.14726 7.79731 3.11794C8.11925 3.08863 8.36569 2.81876 8.36569 2.49551V0.625194C8.36569 0.453382 8.29494 0.289069 8.17006 0.171007C8.04519 0.0529441 7.87706 -0.00824338 7.70563 0.00119412C5.73 0.112319 3.375 1.10982 3.375 5.23094V8.48344C3.375 9.02638 3.81669 9.46807 4.35962 9.46807H7.74106C8.284 9.46807 8.72569 9.02632 8.72563 8.48338V5.46194C8.72563 4.91901 8.28394 4.47732 7.741 4.47732ZM7.47569 8.21801H4.625V5.23094C4.625 2.35532 5.90381 1.55219 7.11569 1.32551V1.98263C6.27875 2.23738 5.3155 2.98976 5.3155 5.10232C5.3155 5.44751 5.59531 5.72732 5.9405 5.72732H7.47569V8.21801Z" fill="white"/>
<path d="M14.1307 4.47732H12.9934C13.1645 3.21088 13.8647 3.14726 14.187 3.11794C14.5089 3.08863 14.7553 2.81876 14.7553 2.49551V0.625194C14.7553 0.453382 14.6846 0.289069 14.5597 0.171007C14.4348 0.0529441 14.2666 -0.00824338 14.0953 0.00119412C12.1196 0.112319 9.76465 1.10982 9.76465 5.23094V8.48344C9.76465 9.02638 10.2063 9.46807 10.7493 9.46807H14.1307C14.6736 9.46807 15.1154 9.02632 15.1153 8.48332V5.46194C15.1153 4.91901 14.6736 4.47732 14.1307 4.47732ZM13.8653 8.21807H11.0146V5.23094C11.0146 2.35532 12.2935 1.55219 13.5053 1.32551V1.98263C12.6684 2.23738 11.7051 2.98976 11.7051 5.10232C11.7051 5.44751 11.985 5.72732 12.3301 5.72732H13.8653V8.21807Z" fill="white"/>
<path d="M17.8169 5.04982C17.7006 4.93357 17.5394 4.8667 17.375 4.8667C17.2106 4.8667 17.0494 4.93357 16.9331 5.04982C16.8169 5.16607 16.75 5.32732 16.75 5.4917C16.75 5.65607 16.8169 5.81732 16.9331 5.93357C17.0494 6.04982 17.2106 6.1167 17.375 6.1167C17.5394 6.1167 17.7006 6.04982 17.8169 5.93357C17.9331 5.81732 18 5.65607 18 5.4917C18 5.32732 17.9331 5.16607 17.8169 5.04982Z" fill="white"/>
<path d="M20.8917 4.86646H20.1041C19.7589 4.86646 19.4791 5.14627 19.4791 5.49146C19.4791 5.83664 19.7589 6.11646 20.1041 6.11646H20.8917C26.3276 6.11646 30.75 10.5389 30.75 15.9748C30.75 20.6143 27.4595 24.6718 22.9258 25.6226C22.6364 25.6833 22.4291 25.9386 22.4291 26.2343V29.8658L18.5795 26.0161C18.4623 25.899 18.3033 25.8331 18.1376 25.8331H11.1083C5.67244 25.8331 1.25 21.4106 1.25 15.9748C1.25 14.2995 1.67769 12.6451 2.48688 11.1905C2.65475 10.8889 2.54619 10.5083 2.24456 10.3405C1.94287 10.1726 1.56231 10.2812 1.39456 10.5828C0.482188 12.2228 0 14.0873 0 15.9748C0 22.1 4.98313 27.0831 11.1083 27.0831H17.8787L22.6122 31.8166C22.7318 31.9361 22.8916 31.9996 23.0543 31.9996C23.1348 31.9996 23.216 31.9841 23.2933 31.952C23.5268 31.8553 23.6791 31.6275 23.6791 31.3746V26.7296C25.9406 26.1436 27.9854 24.8396 29.4796 23.0206C31.1049 21.0421 32 18.5398 32 15.9748C32 9.84964 27.0169 4.86652 20.8917 4.86646Z" fill="white"/>
<path d="M23.6915 11.0933H8.30859C7.96341 11.0933 7.68359 11.3731 7.68359 11.7183C7.68359 12.0634 7.96341 12.3433 8.30859 12.3433H23.6915C24.0367 12.3433 24.3165 12.0634 24.3165 11.7183C24.3165 11.3731 24.0367 11.0933 23.6915 11.0933Z" fill="white"/>
<path d="M23.6915 14.4265H8.30859C7.96341 14.4265 7.68359 14.7063 7.68359 15.0515C7.68359 15.3967 7.96341 15.6765 8.30859 15.6765H23.6915C24.0367 15.6765 24.3165 15.3967 24.3165 15.0515C24.3165 14.7063 24.0367 14.4265 23.6915 14.4265Z" fill="white"/>
<path d="M23.6915 17.7598H8.30859C7.96341 17.7598 7.68359 18.0396 7.68359 18.3848C7.68359 18.7299 7.96341 19.0098 8.30859 19.0098H23.6915C24.0367 19.0098 24.3165 18.7299 24.3165 18.3848C24.3165 18.0396 24.0367 17.7598 23.6915 17.7598Z" fill="white"/>
<path d="M23.6917 21.0933H15.4922C15.147 21.0933 14.8672 21.3731 14.8672 21.7183C14.8672 22.0634 15.147 22.3433 15.4922 22.3433H23.6917C24.0369 22.3433 24.3167 22.0634 24.3167 21.7183C24.3167 21.3731 24.0369 21.0933 23.6917 21.0933Z" fill="white"/>
<path d="M11.9754 21.0933H11.9653C11.6201 21.0933 11.3403 21.3731 11.3403 21.7183C11.3403 22.0634 11.6201 22.3433 11.9653 22.3433H11.9754C12.3206 22.3433 12.6004 22.0634 12.6004 21.7183C12.6004 21.3731 12.3206 21.0933 11.9754 21.0933Z" fill="white"/>
</g>
<defs>
<clipPath id="clip0_363_919">
<rect width="32" height="32" fill="white"/>
</clipPath>
</defs>
</svg>
